<svg xmlns="http://www.w3.org/2000/svg" width="191.685" height="151.746" viewBox="0 0 191.685 151.746">
  <path id="_01" data-name="01" d="M59.158,3A58.651,58.651,0,0,1,44.786,1.307,46.493,46.493,0,0,1,32.37-3.8,40.532,40.532,0,0,1,22.2-12.467a51.651,51.651,0,0,1-7.594-12.3A68.222,68.222,0,0,1,9.876-40.652,111.632,111.632,0,0,1,8.309-60.059V-85.884a112.29,112.29,0,0,1,1.554-19.393,68.184,68.184,0,0,1,4.688-15.848,51.186,51.186,0,0,1,7.545-12.25A40.106,40.106,0,0,1,32.221-142,46.326,46.326,0,0,1,44.6-147.062a58.914,58.914,0,0,1,14.358-1.682,58.914,58.914,0,0,1,14.358,1.682A46.325,46.325,0,0,1,85.694-142a40.106,40.106,0,0,1,10.125,8.622,51.186,51.186,0,0,1,7.545,12.25,68.186,68.186,0,0,1,4.688,15.848,112.291,112.291,0,0,1,1.554,19.393v25.825a113.4,113.4,0,0,1-1.541,19.4,69.048,69.048,0,0,1-4.649,15.883,51.411,51.411,0,0,1-7.493,12.3A40.1,40.1,0,0,1,85.849-3.8a45.779,45.779,0,0,1-12.343,5.1A58.347,58.347,0,0,1,59.158,3Zm-.2-149.746c-9.847,0-18.5,2.175-25.715,6.466C26.052-136,20.378-129.284,16.378-120.311c-4.027,9.037-6.069,20.62-6.069,34.427v25.825c0,13.806,2.059,25.406,6.119,34.475,4.032,9.008,9.741,15.76,16.966,20.07C40.643-1.19,49.311,1,59.158,1s18.478-2.191,25.66-6.513c7.159-4.308,12.8-11.06,16.767-20.066,4-9.071,6.021-20.672,6.021-34.481V-85.884c0-13.807-2.042-25.39-6.069-34.427-4-8.973-9.673-15.691-16.864-19.967C77.456-144.569,68.8-146.744,58.958-146.744ZM199.994,1H167.865V-108.762l-34.233,10.31v-26.376l62.088-22.015h4.275ZM169.865-1h28.129V-144.842h-1.931l-60.432,21.428v22.272l34.233-10.31ZM59.158-21.322c-6.808,0-12.025-2.783-15.509-8.272A31.018,31.018,0,0,1,39.8-40.327a85.442,85.442,0,0,1-1.256-15.728V-89.988a84.581,84.581,0,0,1,1.244-15.565A30.878,30.878,0,0,1,43.6-116.2c3.45-5.457,8.618-8.223,15.359-8.223s11.909,2.767,15.359,8.223a30.878,30.878,0,0,1,3.816,10.644,84.579,84.579,0,0,1,1.244,15.565v33.933a88.016,88.016,0,0,1-1.218,15.722,31.62,31.62,0,0,1-3.735,10.727C71.041-24.109,65.9-21.322,59.158-21.322Zm-.2-101.1c-6.1,0-10.567,2.385-13.669,7.292-3.152,4.985-4.75,13.444-4.75,25.141v33.933c0,11.829,1.615,20.371,4.8,25.389,3.136,4.941,7.656,7.343,13.82,7.343,6.09,0,10.526-2.4,13.562-7.332,3.09-5.021,4.656-13.567,4.656-25.4V-89.988c0-11.7-1.6-20.156-4.75-25.141C69.524-120.035,65.053-122.42,58.958-122.42Z" transform="translate(-8.309 148.744)" fill="#426b87" opacity="0.29"/>
</svg>
