<svg xmlns="http://www.w3.org/2000/svg" width="219.012" height="151.846" viewBox="0 0 219.012 151.846">
  <path id="_03" data-name="03" d="M173.97,3a68.079,68.079,0,0,1-12.737-1.181A63.8,63.8,0,0,1,149.22-1.726a45.994,45.994,0,0,1-10.6-6,43.178,43.178,0,0,1-8.39-8.492,35.326,35.326,0,0,1-5.486-10.892,44.729,44.729,0,0,1-1.82-13.029v-1h32.23v1a15.3,15.3,0,0,0,2.538,8.559,17.369,17.369,0,0,0,7.012,6.058,22.71,22.71,0,0,0,10.071,2.2,24.259,24.259,0,0,0,11.01-2.345,16.666,16.666,0,0,0,7-6.374,18.158,18.158,0,0,0,2.413-9.4c0-6.749-1.836-11.856-5.457-15.179-3.645-3.346-9.253-5.042-16.666-5.042H156.454V-87.184h16.615c6.5,0,11.488-1.655,14.815-4.919s5.005-7.834,5.005-13.6c0-4.976-1.537-9.068-4.569-12.163s-7.585-4.655-13.55-4.655a21.884,21.884,0,0,0-8.9,1.817,15.647,15.647,0,0,0-6.453,5.079,12.486,12.486,0,0,0-2.361,7.519v1H124.823v-1a38.61,38.61,0,0,1,1.659-11.419,35.185,35.185,0,0,1,4.983-10.032,40.969,40.969,0,0,1,7.785-8.221,46.329,46.329,0,0,1,10.09-6.076,56.538,56.538,0,0,1,11.77-3.745,64.979,64.979,0,0,1,12.861-1.246,80.647,80.647,0,0,1,14.266,1.2,59.431,59.431,0,0,1,12.447,3.628,42.971,42.971,0,0,1,10.286,6.048,37.628,37.628,0,0,1,7.725,8.432,36.555,36.555,0,0,1,4.825,10.663,47.9,47.9,0,0,1,1.6,12.665,31.463,31.463,0,0,1-1.512,9.692,34.184,34.184,0,0,1-4.523,9A37.725,37.725,0,0,1,211.9-79.8a43.627,43.627,0,0,1-7.409,4.822,42.515,42.515,0,0,1,8.576,4.7,33.864,33.864,0,0,1,7.863,7.839,33.289,33.289,0,0,1,4.8,9.88,40.885,40.885,0,0,1,1.593,11.62,44.8,44.8,0,0,1-1.743,12.7,37.435,37.435,0,0,1-5.245,10.9,41.883,41.883,0,0,1-8.268,8.768,47.753,47.753,0,0,1-10.824,6.391,61.692,61.692,0,0,1-12.859,3.893A77.521,77.521,0,0,1,173.97,3ZM124.931-39.139c.168,8.516,2.486,15.821,6.9,21.724A41.963,41.963,0,0,0,149.972-3.579,63.454,63.454,0,0,0,173.97,1a66.7,66.7,0,0,0,26.481-5.024A42.11,42.11,0,0,0,218.7-18.492c4.4-6.271,6.625-13.824,6.625-22.448,0-7.891-2.026-14.734-6.02-20.34s-9.934-9.867-17.643-12.653l-2.291-.828,2.212-1.021a38.6,38.6,0,0,0,15.864-12.876,30.251,30.251,0,0,0,5.676-17.546c0-8.7-2.048-16.174-6.087-22.217a37.6,37.6,0,0,0-17.123-13.748c-7.382-3.1-16.109-4.676-25.938-4.676a58.14,58.14,0,0,0-23.817,4.818,41.013,41.013,0,0,0-17.06,13.631,34.026,34.026,0,0,0-6.258,19.29h28.247a14.274,14.274,0,0,1,2.715-7.7,17.62,17.62,0,0,1,7.261-5.731,23.871,23.871,0,0,1,9.713-1.987,26.292,26.292,0,0,1,8.6,1.294,16.3,16.3,0,0,1,6.379,3.961c3.411,3.481,5.14,8.044,5.14,13.562a24.393,24.393,0,0,1-1.389,8.48,17.713,17.713,0,0,1-4.216,6.547,17.855,17.855,0,0,1-6.914,4.138,29.364,29.364,0,0,1-9.3,1.353H158.454v21.523h14.615a35.839,35.839,0,0,1,10.409,1.37,19.583,19.583,0,0,1,7.609,4.2,17.517,17.517,0,0,1,4.6,7.027,28.276,28.276,0,0,1,1.505,9.625,20.127,20.127,0,0,1-2.692,10.42,18.633,18.633,0,0,1-7.816,7.139,26.227,26.227,0,0,1-11.912,2.56,24.689,24.689,0,0,1-10.95-2.4,19.342,19.342,0,0,1-7.8-6.754,17.182,17.182,0,0,1-2.841-8.659ZM59.158,3A58.65,58.65,0,0,1,44.786,1.307,46.493,46.493,0,0,1,32.37-3.8,40.532,40.532,0,0,1,22.2-12.467a51.65,51.65,0,0,1-7.594-12.3A68.223,68.223,0,0,1,9.876-40.652,111.63,111.63,0,0,1,8.309-60.059V-85.884a112.29,112.29,0,0,1,1.554-19.393,68.185,68.185,0,0,1,4.688-15.848,51.186,51.186,0,0,1,7.545-12.25A40.106,40.106,0,0,1,32.221-142,46.325,46.325,0,0,1,44.6-147.062a58.913,58.913,0,0,1,14.358-1.682,58.913,58.913,0,0,1,14.358,1.682A46.325,46.325,0,0,1,85.694-142a40.106,40.106,0,0,1,10.125,8.622,51.185,51.185,0,0,1,7.544,12.25,68.185,68.185,0,0,1,4.688,15.848,112.29,112.29,0,0,1,1.554,19.393v25.825a113.4,113.4,0,0,1-1.541,19.4,69.049,69.049,0,0,1-4.649,15.883,51.411,51.411,0,0,1-7.493,12.3A40.1,40.1,0,0,1,85.849-3.8a45.779,45.779,0,0,1-12.343,5.1A58.348,58.348,0,0,1,59.158,3Zm-.2-149.746c-9.847,0-18.5,2.175-25.715,6.466C26.052-136,20.378-129.284,16.378-120.311c-4.027,9.037-6.069,20.62-6.069,34.427v25.825c0,13.806,2.059,25.406,6.119,34.475,4.032,9.008,9.741,15.76,16.966,20.07C40.643-1.19,49.311,1,59.158,1s18.478-2.191,25.66-6.513c7.159-4.308,12.8-11.06,16.767-20.066,4-9.071,6.021-20.672,6.021-34.481V-85.884c0-13.807-2.042-25.39-6.069-34.427-4-8.973-9.673-15.691-16.865-19.967C77.456-144.569,68.8-146.744,58.958-146.744Zm.2,125.422c-6.808,0-12.025-2.783-15.509-8.272A31.018,31.018,0,0,1,39.8-40.327a85.441,85.441,0,0,1-1.257-15.728V-89.988a84.582,84.582,0,0,1,1.244-15.565A30.878,30.878,0,0,1,43.6-116.2c3.45-5.457,8.618-8.223,15.359-8.223s11.909,2.767,15.359,8.223a30.878,30.878,0,0,1,3.816,10.644,84.581,84.581,0,0,1,1.244,15.565v33.933a88.019,88.019,0,0,1-1.218,15.722,31.62,31.62,0,0,1-3.735,10.727C71.041-24.109,65.9-21.322,59.158-21.322Zm-.2-101.1c-6.1,0-10.567,2.385-13.669,7.292-3.152,4.985-4.75,13.444-4.75,25.141v33.933c0,11.829,1.615,20.372,4.8,25.389,3.136,4.941,7.656,7.343,13.82,7.343,6.09,0,10.526-2.4,13.562-7.332,3.09-5.021,4.656-13.567,4.656-25.4V-89.988c0-11.7-1.6-20.156-4.75-25.141C69.524-120.035,65.053-122.42,58.958-122.42Z" transform="translate(-8.309 148.844)" fill="#426b87" opacity="0.29"/>
</svg>
