<svg xmlns="http://www.w3.org/2000/svg" width="220.613" height="151.846" viewBox="0 0 220.613 151.846">
  <g id="Group_6016" data-name="Group 6016" transform="translate(-760.309 -1430.019)">
    <path id="_02" data-name="02" d="M59.158,3A58.65,58.65,0,0,1,44.786,1.307,46.492,46.492,0,0,1,32.37-3.8,40.532,40.532,0,0,1,22.2-12.467a51.65,51.65,0,0,1-7.594-12.3A68.223,68.223,0,0,1,9.876-40.652,111.63,111.63,0,0,1,8.309-60.059V-85.884a112.29,112.29,0,0,1,1.554-19.393,68.185,68.185,0,0,1,4.688-15.848,51.185,51.185,0,0,1,7.545-12.25A40.107,40.107,0,0,1,32.221-142,46.325,46.325,0,0,1,44.6-147.062a58.913,58.913,0,0,1,14.358-1.682,58.913,58.913,0,0,1,14.358,1.682A46.326,46.326,0,0,1,85.694-142a40.106,40.106,0,0,1,10.125,8.622,51.185,51.185,0,0,1,7.545,12.25,68.185,68.185,0,0,1,4.688,15.848,112.29,112.29,0,0,1,1.554,19.393v25.825a113.4,113.4,0,0,1-1.541,19.4,69.049,69.049,0,0,1-4.649,15.883,51.411,51.411,0,0,1-7.493,12.3A40.1,40.1,0,0,1,85.849-3.8a45.779,45.779,0,0,1-12.343,5.1A58.348,58.348,0,0,1,59.158,3Zm-.2-149.746c-9.847,0-18.5,2.175-25.715,6.466C26.052-136,20.378-129.284,16.378-120.311c-4.027,9.037-6.069,20.62-6.069,34.427v25.825c0,13.806,2.059,25.406,6.119,34.475,4.032,9.008,9.741,15.76,16.966,20.07C40.643-1.19,49.311,1,59.158,1s18.478-2.191,25.66-6.513c7.159-4.308,12.8-11.06,16.767-20.066,4-9.071,6.021-20.672,6.021-34.481V-85.884c0-13.807-2.042-25.39-6.069-34.427-4-8.973-9.673-15.691-16.865-19.967C77.456-144.569,68.8-146.744,58.958-146.744ZM228.922,1h-102.3V-21.118l47.411-50.129c6.587-7.313,11.34-13.563,14.125-18.576,2.739-4.931,4.128-9.432,4.128-13.378,0-6.124-1.515-10.936-4.5-14.3-2.957-3.33-7.235-5.019-12.715-5.019a17.749,17.749,0,0,0-10.2,2.929,18.776,18.776,0,0,0-6.6,8.135A29.528,29.528,0,0,0,155.951-99.5v1h-32.23v-1a51.942,51.942,0,0,1,1.608-13,48.51,48.51,0,0,1,4.829-11.869,46.048,46.048,0,0,1,7.8-10.129,49.164,49.164,0,0,1,10.5-7.766A50.692,50.692,0,0,1,161.2-147.2a61.77,61.77,0,0,1,14.474-1.642,77.873,77.873,0,0,1,14.425,1.256,51.96,51.96,0,0,1,12.12,3.791,39.766,39.766,0,0,1,9.651,6.214,34.964,34.964,0,0,1,7.007,8.5,39.2,39.2,0,0,1,4.238,10.567,52.321,52.321,0,0,1,1.405,12.412,47.142,47.142,0,0,1-3.936,18.815A82.387,82.387,0,0,1,209.64-69.3C205-63.4,198.868-56.483,191.405-48.754L169-25.324h59.92Zm-100.3-2h98.3V-23.324h-62.6l25.64-26.816c7.419-7.684,13.509-14.545,18.1-20.4a80.394,80.394,0,0,0,10.679-17.547,45.154,45.154,0,0,0,3.772-18.021c0-8.52-1.806-15.91-5.367-21.965a34.677,34.677,0,0,0-15.774-13.913c-6.974-3.226-15.623-4.862-25.706-4.862-9.857,0-18.686,2.13-26.24,6.33A44.932,44.932,0,0,0,131.9-123.376a47.413,47.413,0,0,0-6.166,22.878h28.233a31.007,31.007,0,0,1,2.475-11.765,20.744,20.744,0,0,1,7.309-8.982,19.709,19.709,0,0,1,11.324-3.277c6.077,0,10.858,1.915,14.211,5.691a18.587,18.587,0,0,1,3.771,6.78,29.331,29.331,0,0,1,1.236,8.849c0,4.29-1.474,9.118-4.38,14.349-2.859,5.147-7.7,11.523-14.4,18.952l-.016.018L128.624-20.322ZM59.158-21.322c-6.808,0-12.025-2.783-15.509-8.272A31.018,31.018,0,0,1,39.8-40.327a85.441,85.441,0,0,1-1.256-15.728V-89.988a84.582,84.582,0,0,1,1.244-15.565A30.878,30.878,0,0,1,43.6-116.2c3.45-5.457,8.618-8.223,15.359-8.223s11.909,2.767,15.359,8.223a30.878,30.878,0,0,1,3.816,10.644,84.58,84.58,0,0,1,1.244,15.565v33.933a88.019,88.019,0,0,1-1.218,15.722,31.62,31.62,0,0,1-3.735,10.727C71.041-24.109,65.9-21.322,59.158-21.322Zm-.2-101.1c-6.1,0-10.567,2.385-13.669,7.292-3.152,4.985-4.75,13.444-4.75,25.141v33.933c0,11.829,1.615,20.372,4.8,25.389,3.136,4.941,7.656,7.343,13.82,7.343,6.09,0,10.526-2.4,13.562-7.332,3.09-5.021,4.656-13.567,4.656-25.4V-89.988c0-11.7-1.6-20.156-4.75-25.141C69.524-120.035,65.053-122.42,58.958-122.42Z" transform="translate(752 1578.863)" fill="#fff" opacity="0.29"/>
  </g>
</svg>
