<svg xmlns="http://www.w3.org/2000/svg" width="19.506" height="14.551" viewBox="0 0 19.506 14.551">
  <g id="Group_6489" data-name="Group 6489" transform="translate(-0.002 -4.548)">
    <path id="Union_9" data-name="Union 9" d="M2.813,14.332a.752.752,0,0,1,0-1.063L7.161,8.923l.285-.285L11,5.086l.032-.029.311-.311a.737.737,0,0,1,.132-.177L15.819.22a.75.75,0,0,1,1.06,1.06L15.573,2.587a12.056,12.056,0,0,1,3.85,4.464.749.749,0,0,1-.015.712,12.07,12.07,0,0,1-3.969,4.527,10.187,10.187,0,0,1-5.686,1.757,9.979,9.979,0,0,1-4.519-1.076l-1.36,1.36a.752.752,0,0,1-1.06,0Zm6.94-1.786A9.48,9.48,0,0,0,17.9,7.392a10.393,10.393,0,0,0-3.386-3.7l-1.99,1.992a3.263,3.263,0,0,1-4.491,4.489L6.363,11.843A8.472,8.472,0,0,0,9.753,12.546Zm0-3.392A1.763,1.763,0,0,0,11.411,6.8L9.156,9.051A1.766,1.766,0,0,0,9.753,9.154ZM2.4,10.92A12.413,12.413,0,0,1,.1,7.764a.8.8,0,0,1-.07-.17s0,0,0,0l0-.022A.71.71,0,0,1,0,7.393a.749.749,0,0,1,.077-.33h0l.005-.011A12.089,12.089,0,0,1,4.065,2.5,10.205,10.205,0,0,1,9.753.74,10.029,10.029,0,0,1,12.009,1a.751.751,0,0,1-.341,1.462,8.423,8.423,0,0,0-1.915-.223A9.476,9.476,0,0,0,1.6,7.392,10.845,10.845,0,0,0,3.453,9.853a.75.75,0,0,1-.528,1.283A.743.743,0,0,1,2.4,10.92Z" transform="translate(0.002 4.548)" fill="#426b87"/>
  </g>
</svg>
