<svg xmlns="http://www.w3.org/2000/svg" width="15.136" height="12.301" viewBox="0 0 15.136 12.301">
  <path id="Icon_metro-twitter" data-name="Icon metro-twitter" d="M17.707,6.273a6.209,6.209,0,0,1-1.784.489,3.115,3.115,0,0,0,1.365-1.718,6.217,6.217,0,0,1-1.972.754A3.108,3.108,0,0,0,10.025,8.63a8.816,8.816,0,0,1-6.4-3.245,3.109,3.109,0,0,0,.961,4.146,3.093,3.093,0,0,1-1.407-.388c0,.013,0,.026,0,.039A3.107,3.107,0,0,0,5.67,12.227a3.111,3.111,0,0,1-1.4.053,3.108,3.108,0,0,0,2.9,2.157,6.23,6.23,0,0,1-3.857,1.329,6.3,6.3,0,0,1-.741-.043,8.831,8.831,0,0,0,13.6-7.44q0-.2-.009-.4a6.308,6.308,0,0,0,1.55-1.607Z" transform="translate(-2.571 -4.817)" fill="#0a0b0a"/>
</svg>
