<svg xmlns="http://www.w3.org/2000/svg" width="14.115" height="14.114" viewBox="0 0 14.115 14.114">
  <path id="Icon_awesome-linkedin-in" data-name="Icon awesome-linkedin-in" d="M3.159,14.115H.233V4.692H3.159ZM1.695,3.406A1.7,1.7,0,1,1,3.389,1.7,1.709,1.709,0,0,1,1.695,3.406ZM14.112,14.115h-2.92V9.528c0-1.093-.022-2.5-1.521-2.5-1.521,0-1.755,1.188-1.755,2.417v4.666H4.992V4.692H7.8V5.977H7.84a3.075,3.075,0,0,1,2.769-1.522c2.962,0,3.506,1.95,3.506,4.483v5.176Z" transform="translate(0 -0.001)" fill="#0a0b0a"/>
</svg>
