<svg xmlns="http://www.w3.org/2000/svg" width="15.756" height="17.331" viewBox="0 0 15.756 17.331">
  <g id="Icon_feather-calendar" data-name="Icon feather-calendar" transform="translate(-3 -1.5)" opacity="0.5">
    <path id="Path_10920" data-name="Path 10920" d="M5.363,4.5H16.392a2.366,2.366,0,0,1,2.363,2.363V17.892a2.366,2.366,0,0,1-2.363,2.363H5.363A2.366,2.366,0,0,1,3,17.892V6.863A2.366,2.366,0,0,1,5.363,4.5ZM16.392,18.68a.789.789,0,0,0,.788-.788V6.863a.789.789,0,0,0-.788-.788H5.363a.789.789,0,0,0-.788.788V17.892a.789.789,0,0,0,.788.788Z" transform="translate(0 -1.424)" fill="#426b87"/>
    <path id="Path_10921" data-name="Path 10921" d="M23.288,6.227a.788.788,0,0,1-.788-.788V2.288a.788.788,0,1,1,1.576,0V5.439A.788.788,0,0,1,23.288,6.227Z" transform="translate(-9.259 0)" fill="#426b87"/>
    <path id="Path_10922" data-name="Path 10922" d="M11.288,6.227a.788.788,0,0,1-.788-.788V2.288a.788.788,0,1,1,1.576,0V5.439A.788.788,0,0,1,11.288,6.227Z" transform="translate(-3.561 0)" fill="#426b87"/>
    <path id="Path_10923" data-name="Path 10923" d="M17.968,15.076H3.788a.788.788,0,0,1,0-1.576h14.18a.788.788,0,0,1,0,1.576Z" transform="translate(0 -5.698)" fill="#426b87"/>
  </g>
</svg>
