<svg xmlns="http://www.w3.org/2000/svg" width="19" height="20" viewBox="0 0 19 20">
  <g id="instagram_3_" data-name="instagram(3)" transform="translate(1 0.81)">
    <path id="Rectangle-path" d="M5-1h7a6.007,6.007,0,0,1,6,6v8a6.007,6.007,0,0,1-6,6H5a6.007,6.007,0,0,1-6-6V5A6.007,6.007,0,0,1,5-1Zm7,18a4,4,0,0,0,4-4V5a4,4,0,0,0-4-4H5A4,4,0,0,0,1,5v8a4,4,0,0,0,4,4Z" transform="translate(0 0.19)" fill="#fff"/>
    <path id="Shape" d="M3.549-1a4.574,4.574,0,0,1,.669.049A4.55,4.55,0,0,1,5.6,7.614,4.57,4.57,0,0,1,3.551,8.1,4.55,4.55,0,0,1-.514,1.5,4.526,4.526,0,0,1,3.549-1Zm0,7.1a2.55,2.55,0,1,0-1.8-.747A2.535,2.535,0,0,0,3.551,6.1Z" transform="translate(5.063 5.161)" fill="#fff"/>
  </g>
</svg>
