<svg id="Icon_feather-globe" data-name="Icon feather-globe" xmlns="http://www.w3.org/2000/svg" width="19.112" height="19.112" viewBox="0 0 19.112 19.112">
  <path id="Path_10796" data-name="Path 10796" d="M11.806,2.25A9.556,9.556,0,1,1,2.25,11.806,9.567,9.567,0,0,1,11.806,2.25Zm0,17.612A8.056,8.056,0,1,0,3.75,11.806,8.065,8.065,0,0,0,11.806,19.862Z" transform="translate(-2.25 -2.25)" fill="#fff"/>
  <path id="Path_10797" data-name="Path 10797" d="M20.612,18.75H3a.75.75,0,0,1,0-1.5H20.612a.75.75,0,0,1,0,1.5Z" transform="translate(-2.25 -8.444)" fill="#fff"/>
  <path id="Path_10798" data-name="Path 10798" d="M15.522,2.25a.75.75,0,0,1,.554.244,14.218,14.218,0,0,1,3.718,9.3q0,.016,0,.031a14.218,14.218,0,0,1-3.718,9.3.75.75,0,0,1-1.108,0,14.218,14.218,0,0,1-3.718-9.3q0-.016,0-.031a14.218,14.218,0,0,1,3.718-9.3A.75.75,0,0,1,15.522,2.25Zm2.772,9.556a12.718,12.718,0,0,0-2.772-7.651,12.718,12.718,0,0,0-2.772,7.651,12.718,12.718,0,0,0,2.772,7.651A12.718,12.718,0,0,0,18.294,11.806Z" transform="translate(-5.967 -2.25)" fill="#fff"/>
</svg>
