<svg id="twitter_1_" data-name="twitter(1)" xmlns="http://www.w3.org/2000/svg" width="17.477" height="14.2" viewBox="0 0 17.477 14.2">
  <path id="Shape" d="M17.477,1.681a7.47,7.47,0,0,1-2.064.566A3.563,3.563,0,0,0,16.989.267a7.16,7.16,0,0,1-2.272.867,3.583,3.583,0,0,0-6.2,2.45A3.689,3.689,0,0,0,8.6,4.4,10.141,10.141,0,0,1,1.217.653a3.584,3.584,0,0,0,1.1,4.789A3.538,3.538,0,0,1,.7,5V5.04A3.6,3.6,0,0,0,3.57,8.56a3.576,3.576,0,0,1-.939.118,3.168,3.168,0,0,1-.678-.061,3.617,3.617,0,0,0,3.348,2.5A7.2,7.2,0,0,1,.857,12.641,6.711,6.711,0,0,1,0,12.592,10.087,10.087,0,0,0,5.5,14.2,10.127,10.127,0,0,0,15.694,4c0-.158-.005-.311-.013-.463A7.148,7.148,0,0,0,17.477,1.681Z" transform="translate(0)" fill="#fff"/>
</svg>
